# xmcd
#
# Track frame offsets:
# 150
# 51208
# 95009
# 139250
# 173751
# 210542
# 251231
# 280077
#
# Disc length: 4449 seconds
#
# Revision: 0
# Processed by: cddbd v1.4PL0 Copyright (c) Steve Scherf et al.
# Submitted via: Audion 3.0.2 (http://www.panic.com/audion/)
#
DISCID=76115f08
DTITLE=Velocity Boy - Velocity Boy
DYEAR=1900
DGENRE=
TTITLE0=sons of the desert
TTITLE1=snapjackin'
TTITLE2=succoso
TTITLE3=triangular funk
TTITLE4=whitetrax (remix)
TTITLE5=goldfish don't bounce
TTITLE6=city lights
TTITLE7=sons of the desert remix
EXTD=
EXTT0=
EXTT1=
EXTT2=
EXTT3=
EXTT4=
EXTT5=
EXTT6=
EXTT7=
PLAYORDER=
